HIERARCHY
ROOT Hips
{
	OFFSET 0.000000 71.427986 0.000000
	CHANNELS 6 Xposition Yposition Zposition Xrotation Yrotation Zrotation
	JOINT Pelvis
	{
		OFFSET 0.000000 0.000000 0.000000
		CHANNELS 3 Xrotation Yrotation Zrotation
		JOINT LeftUpLeg
		{
			OFFSET 6.797100 -2.508499 -1.318700
			CHANNELS 3 Xrotation Yrotation Zrotation
			JOINT LeftLeg
			{
				OFFSET 0.069008 -29.241863 0.690200
				CHANNELS 3 Xrotation Yrotation Zrotation
				JOINT LeftFoot
				{
					OFFSET -0.069008 -29.568123 -0.266800
					CHANNELS 3 Xrotation Yrotation Zrotation
					JOINT LeftToeBase
					{
						OFFSET 3.145500 -8.631000 16.059900
						CHANNELS 3 Xrotation Yrotation Zrotation
						End Site
						{
							OFFSET 0.000000 18.501587 0.000000
						}
					}
				}
			}
			JOINT Left_ShortSleeve
			{
				OFFSET 0.265923 -10.480953 1.153800
				CHANNELS 3 Xrotation Yrotation Zrotation
				End Site
				{
					OFFSET 1.725763 19.823879 0.000000
				}
			}
		}
		JOINT RightUpLeg
		{
			OFFSET -6.797100 -2.508499 -1.318700
			CHANNELS 3 Xrotation Yrotation Zrotation
			JOINT RightLeg
			{
				OFFSET -0.082453 -29.241932 0.688000
				CHANNELS 3 Xrotation Yrotation Zrotation
				JOINT RightFoot
				{
					OFFSET 0.082453 -29.568058 -0.264600
					CHANNELS 3 Xrotation Yrotation Zrotation
					JOINT RightToeBase
					{
						OFFSET -3.115300 -8.682800 16.113400
						CHANNELS 3 Xrotation Yrotation Zrotation
						End Site
						{
							OFFSET 0.000000 18.567114 0.000000
						}
					}
				}
			}
			JOINT Right_ShortSleeve
			{
				OFFSET -0.265923 -10.480953 1.153800
				CHANNELS 3 Xrotation Yrotation Zrotation
				End Site
				{
					OFFSET -1.725766 19.823910 0.000000
				}
			}
		}
	}
	JOINT Spine
	{
		OFFSET 0.000000 13.368103 0.470500
		CHANNELS 3 Xrotation Yrotation Zrotation
		JOINT Spine1
		{
			OFFSET 0.147000 13.837402 0.538800
			CHANNELS 3 Xrotation Yrotation Zrotation
			JOINT Spine2
			{
				OFFSET 0.168000 16.242897 -1.435500
				CHANNELS 3 Xrotation Yrotation Zrotation
				JOINT Neck
				{
					OFFSET 0.217200 18.631500 -1.679100
					CHANNELS 3 Xrotation Yrotation Zrotation
					JOINT Head
					{
						OFFSET 0.000000 6.599396 1.385900
						CHANNELS 3 Xrotation Yrotation Zrotation
						JOINT Hat
						{
							OFFSET -0.532200 27.220596 -10.096100
							CHANNELS 3 Xrotation Yrotation Zrotation
							End Site
							{
								OFFSET 0.000000 22.029861 0.000000
							}
						}
						JOINT HairD
						{
							OFFSET -10.777400 17.437393 -1.325900
							CHANNELS 3 Xrotation Yrotation Zrotation
							JOINT HairD1
							{
								OFFSET -3.290299 -11.051193 1.062200
								CHANNELS 3 Xrotation Yrotation Zrotation
								End Site
								{
									OFFSET 0.000000 11.579437 0.000000
								}
							}
						}
						JOINT HairB
						{
							OFFSET -10.777400 17.437393 1.467900
							CHANNELS 3 Xrotation Yrotation Zrotation
							JOINT HairB1
							{
								OFFSET -1.561200 -12.956299 3.590200
								CHANNELS 3 Xrotation Yrotation Zrotation
								End Site
								{
									OFFSET 0.000000 13.534866 0.000000
								}
							}
						}
						JOINT HairA
						{
							OFFSET 9.713100 17.437393 1.467900
							CHANNELS 3 Xrotation Yrotation Zrotation
							JOINT HairA1
							{
								OFFSET 1.561200 -12.956299 3.590200
								CHANNELS 3 Xrotation Yrotation Zrotation
								End Site
								{
									OFFSET 0.000000 13.534866 0.000000
								}
							}
						}
						JOINT HairC
						{
							OFFSET 9.713100 17.437393 -1.325900
							CHANNELS 3 Xrotation Yrotation Zrotation
							JOINT HairC1
							{
								OFFSET 3.290300 -11.051193 1.062200
								CHANNELS 3 Xrotation Yrotation Zrotation
								End Site
								{
									OFFSET 0.000000 11.579437 0.000000
								}
							}
						}
					}
				}
				JOINT LeftShoulder
				{
					OFFSET 5.101800 15.108002 -2.763700
					CHANNELS 3 Xrotation Yrotation Zrotation
					JOINT LeftArm
					{
						OFFSET 9.825497 2.506317 -1.597400
						CHANNELS 3 Xrotation Yrotation Zrotation
						JOINT LeftForeArm
						{
							OFFSET 21.966244 0.000000 0.000000
							CHANNELS 3 Xrotation Yrotation Zrotation
							JOINT LeftHand
							{
								OFFSET 33.879036 0.000000 0.000000
								CHANNELS 3 Xrotation Yrotation Zrotation
								JOINT LeftHandThumb1
								{
									OFFSET 6.715286 -2.359680 3.363841
									CHANNELS 3 Xrotation Yrotation Zrotation
									JOINT LeftHandThumb2
									{
										OFFSET 2.507072 -1.447464 1.447461
										CHANNELS 3 Xrotation Yrotation Zrotation
										JOINT LeftHandThumb3
										{
											OFFSET 2.898338 -1.673355 1.673357
											CHANNELS 3 Xrotation Yrotation Zrotation
											End Site
											{
												OFFSET -0.295959 3.727692 -0.131651
											}
										}
									}
								}
								JOINT LeftHandIndex1
								{
									OFFSET 14.190811 -0.254547 3.840278
									CHANNELS 3 Xrotation Yrotation Zrotation
									JOINT LeftHandIndex2
									{
										OFFSET 3.551727 0.000000 -0.000000
										CHANNELS 3 Xrotation Yrotation Zrotation
										JOINT LeftHandIndex3
										{
											OFFSET 2.894196 0.000000 0.000000
											CHANNELS 3 Xrotation Yrotation Zrotation
											End Site
											{
												OFFSET -1.000603 2.690872 0.366626
											}
										}
									}
								}
								JOINT LeftHandMiddle1
								{
									OFFSET 13.776489 0.000000 0.000000
									CHANNELS 3 Xrotation Yrotation Zrotation
									JOINT LeftHandMiddle2
									{
										OFFSET 3.438232 0.000000 0.000000
										CHANNELS 3 Xrotation Yrotation Zrotation
										JOINT LeftHandMiddle3
										{
											OFFSET 3.691551 0.000000 0.000000
											CHANNELS 3 Xrotation Yrotation Zrotation
											End Site
											{
												OFFSET -1.082298 3.499527 0.457670
											}
										}
									}
								}
								JOINT LeftHandRing1
								{
									OFFSET 13.966164 -0.268127 -3.067488
									CHANNELS 3 Xrotation Yrotation Zrotation
									JOINT LeftHandRing2
									{
										OFFSET 3.162567 0.000000 0.000000
										CHANNELS 3 Xrotation Yrotation Zrotation
										JOINT LeftHandRing3
										{
											OFFSET 3.324348 0.000000 0.000000
											CHANNELS 3 Xrotation Yrotation Zrotation
											End Site
											{
												OFFSET -0.861900 3.184998 0.405154
											}
										}
									}
								}
								JOINT LeftHandPinky1
								{
									OFFSET 13.131393 -0.168503 -5.746925
									CHANNELS 3 Xrotation Yrotation Zrotation
									JOINT LeftHandPinky2
									{
										OFFSET 2.849182 0.000000 0.000000
										CHANNELS 3 Xrotation Yrotation Zrotation
										JOINT LeftHandPinky3
										{
											OFFSET 2.805038 0.000000 0.000000
											CHANNELS 3 Xrotation Yrotation Zrotation
											End Site
											{
												OFFSET -0.882500 2.642609 0.325652
											}
										}
									}
								}
							}
							JOINT Left_Sleeve
							{
								OFFSET 6.592125 -0.646545 0.805568
								CHANNELS 3 Xrotation Yrotation Zrotation
								End Site
								{
									OFFSET -0.000179 20.275787 -0.000000
								}
							}
						}
					}
				}
				JOINT RightShoulder
				{
					OFFSET -5.731700 15.108002 -2.763700
					CHANNELS 3 Xrotation Yrotation Zrotation
					JOINT RightArm
					{
						OFFSET -9.825497 2.506317 -1.597400
						CHANNELS 3 Xrotation Yrotation Zrotation
						JOINT RightForeArm
						{
							OFFSET -21.966242 0.000000 0.000000
							CHANNELS 3 Xrotation Yrotation Zrotation
							JOINT RightHand
							{
								OFFSET -33.879032 0.000000 0.000000
								CHANNELS 3 Xrotation Yrotation Zrotation
								JOINT RightHandThumb1
								{
									OFFSET -6.715286 -2.359680 3.363841
									CHANNELS 3 Xrotation Yrotation Zrotation
									JOINT RightHandThumb2
									{
										OFFSET -2.507072 -1.447464 1.447461
										CHANNELS 3 Xrotation Yrotation Zrotation
										JOINT RightHandThumb3
										{
											OFFSET -2.898338 -1.673355 1.673357
											CHANNELS 3 Xrotation Yrotation Zrotation
											End Site
											{
												OFFSET 0.295959 3.727692 -0.131651
											}
										}
									}
								}
								JOINT RightHandIndex1
								{
									OFFSET -14.190811 -0.254547 3.840278
									CHANNELS 3 Xrotation Yrotation Zrotation
									JOINT RightHandIndex2
									{
										OFFSET -3.551727 0.000000 -0.000000
										CHANNELS 3 Xrotation Yrotation Zrotation
										JOINT RightHandIndex3
										{
											OFFSET -2.894196 0.000000 0.000000
											CHANNELS 3 Xrotation Yrotation Zrotation
											End Site
											{
												OFFSET 1.000603 2.690872 0.366626
											}
										}
									}
								}
								JOINT RightHandMiddle1
								{
									OFFSET -13.776489 0.000000 0.000000
									CHANNELS 3 Xrotation Yrotation Zrotation
									JOINT RightHandMiddle2
									{
										OFFSET -3.438232 0.000000 0.000000
										CHANNELS 3 Xrotation Yrotation Zrotation
										JOINT RightHandMiddle3
										{
											OFFSET -3.691551 0.000000 0.000000
											CHANNELS 3 Xrotation Yrotation Zrotation
											End Site
											{
												OFFSET 1.082298 3.499527 0.457670
											}
										}
									}
								}
								JOINT RightHandRing1
								{
									OFFSET -13.966164 -0.268127 -3.067488
									CHANNELS 3 Xrotation Yrotation Zrotation
									JOINT RightHandRing2
									{
										OFFSET -3.162567 0.000000 0.000000
										CHANNELS 3 Xrotation Yrotation Zrotation
										JOINT RightHandRing3
										{
											OFFSET -3.324348 0.000000 0.000000
											CHANNELS 3 Xrotation Yrotation Zrotation
											End Site
											{
												OFFSET 0.861900 3.184998 0.405154
											}
										}
									}
								}
								JOINT RightHandPinky1
								{
									OFFSET -13.131393 -0.168503 -5.746925
									CHANNELS 3 Xrotation Yrotation Zrotation
									JOINT RightHandPinky2
									{
										OFFSET -2.849182 0.000000 0.000000
										CHANNELS 3 Xrotation Yrotation Zrotation
										JOINT RightHandPinky3
										{
											OFFSET -2.805038 0.000000 0.000000
											CHANNELS 3 Xrotation Yrotation Zrotation
											End Site
											{
												OFFSET 0.882500 2.642609 0.325652
											}
										}
									}
								}
							}
							JOINT Right_Sleeve
							{
								OFFSET -6.592125 -0.646545 0.805568
								CHANNELS 3 Xrotation Yrotation Zrotation
								End Site
								{
									OFFSET 0.000179 20.275787 -0.000000
								}
							}
						}
					}
				}
				JOINT Bind_Right_JacketString
				{
					OFFSET -3.534800 11.969597 7.200700
					CHANNELS 3 Xrotation Yrotation Zrotation
					JOINT Bind_Right_JacketString1
					{
						OFFSET -0.319900 -6.102600 2.794100
						CHANNELS 3 Xrotation Yrotation Zrotation
						End Site
						{
							OFFSET 0.000000 6.719452 0.000000
						}
					}
				}
				JOINT Bind_Left_JacketString
				{
					OFFSET 2.904800 11.969597 7.200700
					CHANNELS 3 Xrotation Yrotation Zrotation
					JOINT Bind_Left_JacketString1
					{
						OFFSET 0.364800 -5.904503 3.186800
						CHANNELS 3 Xrotation Yrotation Zrotation
						End Site
						{
							OFFSET 0.000000 6.719513 0.000000
						}
					}
				}
				JOINT HairE
				{
					OFFSET 5.915200 17.612701 -11.592200
					CHANNELS 3 Xrotation Yrotation Zrotation
					JOINT HairE1
					{
						OFFSET 0.289200 -7.171898 -1.284500
						CHANNELS 3 Xrotation Yrotation Zrotation
						End Site
						{
							OFFSET 0.000000 7.291756 0.000000
						}
					}
				}
				JOINT HairF
				{
					OFFSET -0.864800 17.612701 -11.592200
					CHANNELS 3 Xrotation Yrotation Zrotation
					JOINT HairF1
					{
						OFFSET 0.000000 -14.087097 -2.127501
						CHANNELS 3 Xrotation Yrotation Zrotation
						End Site
						{
							OFFSET 0.000000 14.246841 0.000000
						}
					}
				}
				JOINT HairG
				{
					OFFSET -8.087700 17.612701 -11.592200
					CHANNELS 3 Xrotation Yrotation Zrotation
					JOINT HairG1
					{
						OFFSET -0.293600 -6.081398 -0.910100
						CHANNELS 3 Xrotation Yrotation Zrotation
						End Site
						{
							OFFSET 0.000000 6.156120 0.000000
						}
					}
				}
			}
		}
	}
	JOINT Pouch
	{
		OFFSET 0.000000 4.394501 10.847300
		CHANNELS 3 Xrotation Yrotation Zrotation
		End Site
		{
			OFFSET 0.000000 21.880577 0.000000
		}
	}
	JOINT Bag
	{
		OFFSET -13.229000 4.813004 -0.593300
		CHANNELS 3 Xrotation Yrotation Zrotation
		End Site
		{
			OFFSET 0.000000 21.880577 0.000000
		}
	}
	JOINT OccupyGuyFacialAnim_Joint
	{
		OFFSET 1.000000 -70.206398 -1.655000
		CHANNELS 3 Xrotation Yrotation Zrotation
		End Site
		{
			OFFSET 0.000000 21.880577 0.000000
		}
	}
}
MOTION
Frames: 4
Frame Time: 0.033333
-0.398543 62.803162 1.701857 -6.444135 -31.090372 7.848611 -0.000001 -0.000001 -0.000001 -12.298182 19.870605 0.579200 54.170681 9.860958 -0.076560 -28.557627 20.486558 -11.108568 0.000000 -0.000000 0.000000 -0.000001 -0.000001 0.000000 -39.498379 -8.154521 -16.040653 67.971543 -0.241578 -4.980335 -22.376996 -16.754970 0.730442 -0.000000 -0.000000 -0.000000 0.000001 -0.000003 -0.000005 6.946469 7.737161 -4.794541 13.940873 0.504494 -3.678761 13.988126 0.676700 -3.528232 -8.196313 -0.181736 0.621516 -18.763730 -0.752068 2.256236 0.000000 -0.000001 -0.000000 0.000000 -0.000001 -0.000000 0.000000 -0.000001 -0.000000 0.000000 -0.000001 -0.000000 0.000000 0.000001 -0.000000 0.000000 -0.000001 -0.000000 0.000000 0.000001 -0.000000 0.000000 -0.000001 -0.000000 0.000000 -0.000001 -0.000000 3.141327 -15.863036 11.656327 -2.481180 -24.081222 -33.028626 0.000008 -18.627855 -0.000005 27.995033 -5.591658 2.144260 0.287237 18.364379 -3.895178 4.562272 15.542727 1.315003 0.000001 0.000002 0.000001 0.587157 2.787013 -23.789955 0.617447 2.854558 -24.404835 -0.000002 0.000001 -0.000000 0.716614 3.063527 -26.326150 0.840398 3.301500 -28.555313 0.000001 -0.000000 0.000001 0.899841 3.408283 -29.571164 1.155974 3.823778 -33.630383 -0.000001 0.000002 0.000001 3.222342 7.116127 -31.888763 1.451517 0.147672 -38.032553 0.000002 -0.000002 -0.000001 0.000000 0.000001 0.000001 1.888056 13.713254 0.187051 -40.721612 63.326509 71.885917 0.000002 16.334669 0.000010 -50.274010 10.751073 -11.055639 4.128703 -12.588741 -13.754735 5.287883 -15.854763 -0.724320 -0.000000 -0.000003 0.000001 0.016743 -0.483417 3.969978 0.066984 -0.964823 7.943107 -0.000001 0.000001 0.000000 0.039000 -0.737019 6.059336 0.087405 -1.101226 9.075264 0.000000 0.000000 -0.000001 0.079920 -1.053336 8.677499 0.116531 -1.270214 10.482937 0.000001 0.000002 0.000000 0.123333 -1.306452 10.785748 0.142108 -1.401380 11.580202 0.000001 0.000002 -0.000003 0.000001 -0.000001 -0.000001 -0.000001 -0.000001 -0.000001 0.000001 -0.000001 -0.000001 -0.000001 -0.000001 0.000000 -0.000001 -0.000001 0.000000 -0.000001 -0.000001 -0.000001 0.000001 -0.000001 -0.000000 -0.000001 -0.000001 0.000000 -0.000001 -0.000001 0.000000 -0.000001 -0.000001 -0.000001 0.000001 -0.000001 -0.000000 -0.000001 -0.000001 -0.000001 -0.000001 -0.000001 -0.000001 -0.000001 -0.000001 -0.000001 
-1.743590 62.254204 2.085385 -8.244824 -31.782236 7.102008 -0.000001 0.000002 -0.000000 -10.499176 21.794116 2.795511 55.466078 9.879708 0.042452 -29.392244 18.065560 -13.048939 -0.000000 -0.000002 0.000000 0.000003 -0.000001 0.000000 -40.510631 -5.145779 -19.759450 69.094754 -3.337606 -3.808261 -20.999157 -18.410435 3.762709 -0.000000 0.000001 0.000000 0.000002 0.000000 -0.000003 8.379210 7.604483 -5.068496 14.502940 0.477414 -3.466340 14.541980 0.640612 -3.314366 -8.679372 -0.042898 0.382458 -20.517378 -0.283554 2.049468 0.000000 -0.000001 -0.000000 0.000000 -0.000001 -0.000000 0.000000 -0.000001 -0.000000 0.000000 -0.000001 -0.000000 0.000000 0.000001 0.000000 0.000000 -0.000001 -0.000000 0.000000 0.000001 0.000000 0.000000 -0.000001 -0.000000 0.000000 -0.000001 -0.000000 3.203597 -16.747465 11.627329 -2.214756 -20.927565 -31.469192 0.000003 -18.569382 -0.000004 30.689894 -6.953783 1.191972 0.269123 18.261544 -3.904890 4.553767 15.434332 1.307347 -0.000000 0.000002 -0.000003 0.677593 2.983467 -25.586319 0.658487 2.943267 -25.216620 0.000000 -0.000002 -0.000000 0.851447 3.321772 -28.746972 0.901968 3.412003 -29.606660 -0.000002 -0.000002 -0.000003 1.099661 3.737943 -32.776623 1.247143 3.957120 -34.974103 -0.000002 0.000002 -0.000004 3.710030 7.345518 -35.761914 1.569204 0.293992 -39.588955 -0.000002 0.000001 -0.000001 0.000002 -0.000001 -0.000004 1.876725 13.541771 -0.298300 -47.431958 64.858465 76.425657 -0.000002 14.998102 0.000001 -52.965354 9.229927 -10.957151 4.119342 -12.656090 -13.767264 5.332166 -16.364708 -0.756955 -0.000000 0.000004 -0.000001 0.021612 -0.548886 4.508636 0.059390 -0.908681 7.478123 0.000001 0.000001 -0.000003 0.042462 -0.768999 6.323235 0.082460 -1.069774 8.813866 -0.000000 -0.000001 -0.000001 0.078483 -1.043850 8.598663 0.116295 -1.268982 10.472687 -0.000001 -0.000002 0.000001 0.115405 -1.264135 10.432215 0.146847 -1.424332 11.772554 0.000001 0.000003 0.000001 -0.000001 0.000001 0.000000 0.000000 -0.000000 -0.000001 0.000000 0.000000 -0.000001 0.000000 -0.000000 -0.000001 0.000000 -0.000000 -0.000001 0.000000 -0.000000 -0.000001 0.000000 0.000000 -0.000000 0.000000 -0.000000 -0.000001 0.000000 -0.000000 -0.000001 0.000000 -0.000000 -0.000001 0.000000 0.000000 -0.000000 -0.000001 0.000002 -0.000000 -0.000001 0.000002 -0.000000 -0.000001 0.000002 -0.000000 
-3.103644 61.710136 2.493855 -10.027267 -32.480456 6.294326 0.000000 -0.000000 0.000001 -8.626006 23.611698 5.038442 56.477478 9.928107 0.172422 -30.195843 15.600982 -15.037469 -0.000000 -0.000000 -0.000000 -0.000002 0.000000 -0.000000 -40.990356 -2.472184 -23.480124 67.458309 -6.921692 -3.713542 -19.226170 -17.798501 4.505584 0.000000 0.000001 -0.000000 0.000003 -0.000000 -0.000002 9.560458 7.129156 -5.269137 14.744492 0.432739 -3.174501 14.775002 0.585593 -3.032020 -8.984590 0.331816 -0.166695 -21.818245 0.944370 1.840910 0.000000 -0.000000 -0.000000 0.000000 -0.000000 -0.000000 0.000000 -0.000000 0.000000 0.000000 -0.000000 -0.000000 0.000000 -0.000000 -0.000000 0.000000 -0.000000 -0.000000 0.000000 -0.000000 -0.000000 0.000000 -0.000000 -0.000000 0.000000 -0.000000 -0.000000 3.122807 -16.751179 11.513551 -1.592885 -16.087998 -30.598349 -0.000002 -18.534348 0.000013 33.510708 -8.273316 0.322101 0.255501 18.184352 -3.912191 4.547379 15.352986 1.301618 0.000000 0.000001 -0.000002 0.796898 3.220427 -27.790682 0.696507 3.022613 -25.947694 0.000002 0.000001 0.000000 1.008460 3.592622 -31.349906 0.965296 3.520969 -30.654432 -0.000001 0.000007 -0.000000 1.310496 4.045961 -35.882218 1.347916 4.097054 -36.408798 0.000001 -0.000004 0.000003 4.168867 7.526183 -39.306304 1.704094 0.452169 -41.312474 -0.000001 -0.000001 0.000003 0.000001 0.000001 0.000002 1.888939 13.253516 -1.228639 -52.099860 66.247159 78.504248 -0.000002 16.378698 -0.000004 -56.986983 6.642868 -12.511377 4.151137 -12.426899 -13.724655 5.360160 -16.688077 -0.777500 -0.000000 0.000000 0.000003 0.032919 -0.677136 5.565287 0.056623 -0.887404 7.302065 0.000000 0.000003 -0.000001 0.049903 -0.833256 6.854186 0.080497 -1.057150 8.709125 0.000002 0.000004 0.000002 0.076223 -1.028828 8.474068 0.115834 -1.266435 10.451441 0.000001 0.000000 -0.000001 0.101532 -1.186177 9.782180 0.148053 -1.430071 11.820837 -0.000001 -0.000001 -0.000001 -0.000001 -0.000002 0.000001 0.000002 -0.000000 -0.000000 0.000002 -0.000000 0.000000 0.000002 -0.000000 -0.000000 0.000002 -0.000000 -0.000000 0.000002 -0.000000 -0.000000 0.000002 -0.000000 0.000001 0.000002 -0.000000 -0.000000 0.000002 -0.000000 -0.000000 0.000002 -0.000000 -0.000000 0.000002 -0.000000 0.000001 0.000000 -0.000000 0.000001 0.000000 -0.000000 0.000001 0.000000 -0.000000 0.000001 
-4.544582 61.145187 2.957932 -11.689540 -33.201994 5.505904 -0.000000 -0.000000 -0.000001 -6.598013 24.629053 7.054610 57.255878 9.913471 0.043404 -30.965851 13.857381 -17.010284 -0.000000 -0.000000 0.000000 0.000002 0.000001 -0.000000 -40.967888 0.613177 -27.937398 63.251377 -8.526948 -4.354830 -12.020887 -13.423566 9.602945 0.000000 -0.000001 -0.000000 -0.000000 0.000000 -0.000003 10.318246 6.145106 -5.169806 14.672715 0.335171 -3.004998 14.696525 0.465769 -2.882533 -9.216135 0.876505 -0.943421 -22.226079 2.692077 1.684717 -0.000000 0.000001 -0.000000 -0.000000 0.000001 -0.000000 -0.000000 0.000001 -0.000000 -0.000000 0.000001 -0.000000 -0.000000 -0.000001 -0.000000 -0.000000 0.000001 -0.000000 -0.000000 -0.000001 -0.000000 -0.000000 0.000001 -0.000000 -0.000000 0.000001 -0.000000 2.859064 -15.546050 11.393393 -0.180909 -9.443558 -30.858737 0.000005 -18.521327 0.000006 35.635918 -9.270599 -0.361946 0.248726 18.145926 -3.915837 4.544229 15.312451 1.298741 -0.000001 -0.000002 -0.000001 0.942918 3.482982 -30.287798 0.742476 3.115173 -26.806116 -0.000000 0.000003 -0.000001 1.174474 3.851402 -33.906821 1.038920 3.642048 -31.832711 -0.000000 -0.000002 0.000002 1.502315 4.297967 -38.518080 1.461971 4.246973 -37.976801 0.000000 0.000001 -0.000001 4.528887 7.645747 -42.032848 1.854995 0.618345 -43.173889 0.000001 0.000000 0.000005 0.000001 0.000001 0.000000 1.925488 12.753263 -2.688748 -48.772451 66.936981 72.370301 0.000004 23.571512 -0.000003 -61.927447 3.639082 -15.718798 4.198221 -12.084868 -13.661336 5.366363 -16.759771 -0.782041 0.000000 0.000000 -0.000001 0.052447 -0.854271 7.027976 0.059833 -0.912107 7.506555 -0.000000 0.000000 0.000000 0.061580 -0.925326 7.615855 0.082334 -1.068955 8.807139 -0.000000 -0.000002 -0.000001 0.074207 -1.015282 8.361583 0.114908 -1.261394 10.409379 0.000000 0.000000 -0.000001 0.085370 -1.088483 8.969304 0.144308 -1.412062 11.669770 0.000001 0.000007 -0.000002 0.000001 0.000001 -0.000001 -0.000001 -0.000000 0.000001 -0.000001 -0.000002 0.000001 -0.000001 -0.000000 0.000001 -0.000001 -0.000000 0.000001 -0.000001 -0.000000 0.000001 -0.000001 -0.000002 0.000001 -0.000001 -0.000000 0.000001 -0.000001 -0.000000 0.000001 -0.000001 -0.000000 0.000001 -0.000001 -0.000002 0.000001 -0.000000 -0.000000 -0.000001 -0.000000 -0.000000 -0.000001 -0.000000 -0.000000 -0.000001 
